<?xml version="1.0" standalone="no"?>
<!DOCTYPE svg PUBLIC "-//W3C//DTD SVG 1.1//EN" "http://www.w3.org/Graphics/SVG/1.1/DTD/svg11.dtd" >
<svg>
<metadata>
Created by FontForge 20090622 at Wed Mar  5 05:00:48 2014
 By ffonts
1.2, Copyright Copr. Castcraft Software, Inc. 1990-1991.
</metadata>
<defs>
<font id="OPTIFrankfurter-Medium" horiz-adv-x="874" >
  <font-face 
    font-family="OPTIFrankfurter-Medium"
    font-weight="500"
    font-stretch="normal"
    units-per-em="1000"
    panose-1="0 0 0 0 0 0 0 0 0 0"
    ascent="800"
    descent="-200"
    x-height="555"
    cap-height="796"
    bbox="-48.0755 -280.537 1092.38 1099"
    underline-thickness="58"
    underline-position="-76"
    stemh="153"
    stemv="174"
    unicode-range="U+0020-U+221E"
  />
<missing-glyph horiz-adv-x="280" 
 />
    <glyph glyph-name=".notdef" horiz-adv-x="280" 
 />
    <glyph glyph-name="space" unicode=" " horiz-adv-x="173" 
d="M0 0z" />
    <glyph glyph-name="exclam" unicode="!" horiz-adv-x="279" 
d="M93 715c0 45 31 81 80 81c47 0 81 -33 81 -79v-391c0 -48 -34 -80 -81 -80c-49 0 -80 35 -80 80v389zM171 194c55 -1 97 -52 96 -107c-1 -54 -47 -95 -102 -95c-54 0 -98 47 -97 102c2 55 48 101 103 100z" />
    <glyph glyph-name="quotedbl" unicode="&#x22;" horiz-adv-x="391" 
d="M137 457h-30l-29 165c-5 27 -30 116 -1 153c9 14 25 21 45 21c19 0 34 -7 47 -26c22 -32 5 -100 -3 -142zM292 457h-29l-30 165c-4 27 -30 116 -1 153c9 14 26 21 46 21c18 0 34 -7 47 -26c22 -32 4 -100 -4 -142z" />
    <glyph glyph-name="numbersign" unicode="#" horiz-adv-x="813" 
d="M381 704h110l-72 -211h121l74 211h110l-72 -211h138l-29 -95h-142l-44 -124h137l-29 -94h-142l-76 -213h-111l74 211h-119l-77 -211h-112l75 211h-139l30 96h142l41 124h-134l28 95h140zM340 274h120l45 124h-117z" />
    <glyph glyph-name="dollar" unicode="$" horiz-adv-x="662" 
d="M445 -36c-1 -49 -44 -87 -93 -86c-50 1 -89 44 -88 94v17c-76 33 -173 72 -193 163c-8 28 -3 71 23 96c22 21 56 28 83 19c33 -12 49 -29 91 -67c31 -28 64 -39 88 -42c32 -4 70 5 97 38c18 21 22 57 13 81c-21 55 -76 65 -141 83l-38 10c-94 24 -170 51 -189 163
c-11 64 6 167 96 231c23 17 64 34 89 45v8c0 48 39 87 88 87c48 0 87 -39 87 -87v-9c59 -19 149 -54 167 -126c5 -24 6 -58 -22 -86c-19 -17 -49 -30 -73 -23c-27 9 -28 15 -74 51c-28 22 -51 35 -75 37c-28 3 -67 0 -93 -33c-15 -20 -18 -44 -10 -65c17 -44 66 -49 113 -64
l38 -9c82 -20 172 -51 210 -156c23 -66 11 -172 -32 -235c-45 -65 -95 -87 -162 -108v-27z" />
    <glyph glyph-name="percent" unicode="%" horiz-adv-x="790" 
d="M272 16c-25 -32 -72 -35 -101 -11c-31 26 -34 71 -11 101l428 559c25 30 72 35 101 10c31 -25 34 -70 11 -101zM227 689c86 0 156 -70 156 -157c0 -85 -70 -154 -156 -154c-87 0 -157 70 -157 156s70 155 157 155zM160 534c0 -36 30 -65 67 -65c35 0 65 28 65 64
c0 37 -30 67 -65 67c-37 0 -67 -30 -67 -66zM622 296c86 0 157 -69 157 -156c0 -85 -71 -157 -157 -157c-87 0 -156 73 -156 159s69 154 156 154zM556 142c0 -37 29 -66 66 -66s65 28 65 65c0 36 -28 66 -65 66s-66 -30 -66 -65z" />
    <glyph glyph-name="ampersand" unicode="&#x26;" horiz-adv-x="727" 
d="M508 298c8 36 34 93 83 93c30 0 57 -15 73 -51c23 -52 -1 -109 -20 -163c49 -56 83 -76 68 -129c-7 -25 -26 -48 -57 -56c-42 -12 -63 14 -106 50c-109 -63 -218 -69 -327 -34c-101 44 -143 121 -155 213c-9 72 7 157 96 233c-39 75 -59 129 -15 210
c41 78 124 124 198 131c60 5 149 -12 212 -92c32 -40 58 -94 41 -137c-11 -26 -29 -44 -57 -53c-19 -5 -47 -1 -65 20c-15 19 -24 78 -66 99c-19 10 -58 18 -83 4c-22 -12 -46 -34 -45 -65c2 -39 49 -80 96 -133zM257 175c43 -54 121 -63 175 -21c3 2 5 5 5 5l-168 182
c-46 -41 -53 -114 -12 -166z" />
    <glyph glyph-name="quotesingle" unicode="'" horiz-adv-x="280" 
d="M67 694c0 56 48 102 104 102s101 -48 101 -104s-48 -169 -77 -188c-11 -8 -26 -12 -40 -5s-22 23 -23 38c-1 12 9 36 17 57c-47 0 -82 57 -82 100z" />
    <glyph glyph-name="parenleft" unicode="(" horiz-adv-x="511" 
d="M66 379c0 164 108 389 293 483c44 22 94 22 124 -16c29 -38 24 -92 -13 -120c-154 -107 -223 -213 -223 -357c0 -97 73 -241 223 -349c38 -27 42 -82 13 -120c-30 -38 -79 -39 -124 -16c-185 96 -293 329 -293 495z" />
    <glyph glyph-name="parenright" unicode=")" horiz-adv-x="509" 
d="M208 -116c-45 -23 -94 -22 -124 16c-29 38 -25 93 13 120c150 108 223 252 223 349c0 144 -69 250 -223 357c-37 28 -42 82 -13 120c30 38 80 38 124 16c185 -94 293 -319 293 -483c0 -166 -108 -399 -293 -495z" />
    <glyph glyph-name="asterisk" unicode="*" horiz-adv-x="460" 
d="M267 622l27 30c24 30 60 67 90 72c17 3 32 -17 44 -36c6 -14 9 -35 0 -48c-16 -28 -89 -33 -111 -37l-39 -9l35 -9c7 -2 21 -5 37 -10c28 -7 56 -6 71 -22c8 -8 14 -24 8 -46c-4 -19 -15 -38 -37 -45c-12 -6 -28 -7 -47 7c-8 5 -72 81 -72 81l-10 13c3 -8 16 -56 22 -72
c12 -37 21 -56 13 -73c-8 -18 -26 -29 -50 -30c-21 -1 -40 4 -52 22c-17 29 16 94 22 130l4 21l-12 -15c-19 -23 -59 -87 -94 -86c-17 2 -38 14 -50 36c-9 18 -10 36 0 52c15 23 77 31 116 38c12 2 19 4 26 5l-17 3c-26 5 -107 14 -125 47c-6 12 -8 33 5 54
c12 22 32 29 48 28c37 -2 82 -68 107 -99c0 0 -18 59 -21 64c-13 31 -16 53 -14 66s12 30 32 37c19 8 48 4 60 -5c13 -9 22 -26 20 -45c0 -10 -1 -20 -15 -56c-1 -2 -21 -63 -21 -63z" />
    <glyph glyph-name="plus" unicode="+" horiz-adv-x="787" 
d="M327 631h166v-234h235v-162h-235v-235h-166v233h-236v164h236v234z" />
    <glyph glyph-name="comma" unicode="," horiz-adv-x="279" 
d="M64 100c0 56 48 101 104 101c55 0 101 -47 101 -103s-48 -170 -77 -189c-11 -7 -27 -11 -40 -4c-14 6 -22 22 -23 38c-1 12 9 36 16 57c-46 0 -81 57 -81 100z" />
    <glyph glyph-name="hyphen" unicode="-" horiz-adv-x="374" 
d="M293 198c39 0 71 34 69 74c-1 40 -35 69 -73 69h-148c-38 0 -73 -29 -74 -69s31 -74 70 -74h156z" />
    <glyph glyph-name="period" unicode="." horiz-adv-x="279" 
d="M166 198c57 -1 102 -48 102 -105c0 -56 -48 -101 -106 -101c-57 0 -102 48 -101 105s49 102 105 101z" />
    <glyph glyph-name="slash" unicode="/" horiz-adv-x="790" 
d="M228 27c-31 -39 -89 -43 -127 -12c-38 30 -42 87 -12 126l535 698c30 38 88 43 126 12c38 -30 42 -87 13 -126z" />
    <glyph glyph-name="zero" unicode="0" 
d="M471 796c222 0 398 -187 395 -409c-3 -223 -186 -395 -410 -395c-222 0 -398 187 -395 409c3 223 188 395 410 395zM229 398c-2 -130 100 -237 230 -239c131 -2 238 100 240 231s-100 236 -231 238s-237 -99 -239 -230z" />
    <glyph glyph-name="one" unicode="1" 
d="M562 81c0 -49 -40 -89 -90 -89c-49 0 -89 44 -89 91v544h-57c-45 0 -78 38 -78 82s32 79 82 79h182c41 0 50 -21 50 -47v-660z" />
    <glyph glyph-name="two" unicode="2" 
d="M368 492c-1 -48 -41 -86 -90 -85c-48 1 -85 41 -85 89c-9 68 27 185 117 248c84 59 188 63 271 31c102 -41 151 -123 165 -213c19 -123 -7 -169 -144 -295l-114 -106h182c43 0 76 -42 75 -85s-39 -76 -82 -76h-301c-26 0 -131 -7 -155 59c-24 62 13 85 90 157l202 190
c59 56 78 79 73 132c-3 33 -25 64 -61 78c-23 10 -48 10 -74 -1c-40 -16 -61 -47 -69 -123z" />
    <glyph glyph-name="three" unicode="3" 
d="M646 449c84 -62 106 -112 101 -189c-5 -83 -49 -175 -147 -230c-83 -48 -188 -52 -278 -6c-92 48 -143 131 -152 215c-4 31 -4 78 34 109c24 20 57 23 85 13c31 -9 51 -30 57 -62c9 -57 12 -91 62 -125c28 -19 70 -18 100 -5c41 18 53 58 58 95c4 32 -6 70 -44 101
c-14 10 -24 15 -49 25c-21 8 -37 13 -45 25c-10 15 -8 28 3 44c12 23 60 34 80 65c10 14 14 42 5 61c-9 22 -29 32 -50 37c-19 4 -42 -2 -60 -23c-29 -36 -16 -76 -64 -94c-20 -8 -59 -3 -82 14c-31 25 -38 56 -37 88c5 56 49 119 114 156c74 41 158 43 232 5
c79 -40 119 -100 126 -172c6 -48 -3 -90 -49 -147z" />
    <glyph glyph-name="four" unicode="4" 
d="M293 317h214v310zM177 159c-25 0 -37 9 -37 31v143c-1 48 14 57 60 126l157 229c51 74 63 100 135 100h117c29 0 52 -3 71 -25c14 -17 14 -40 14 -66v-380h26c60 0 81 -31 83 -75s-40 -83 -76 -83h-30v-75c0 -52 -46 -92 -97 -92c-53 0 -93 46 -93 97v70h-330z" />
    <glyph glyph-name="five" unicode="5" 
d="M417 628l-7 -54c48 11 125 3 161 -8c117 -36 183 -147 183 -268c0 -168 -133 -306 -302 -306c-111 0 -199 53 -265 134c-31 49 -19 111 27 137c46 27 88 11 128 -22c45 -36 62 -50 106 -52c73 -4 125 53 123 121c-2 69 -46 123 -122 123c-66 0 -144 -21 -167 -18
c-18 2 -35 6 -48 20c-15 16 -17 39 -15 59c0 1 23 170 23 170c15 108 65 124 176 124h232c64 0 77 -41 75 -85c-2 -43 -40 -75 -83 -75h-225z" />
    <glyph glyph-name="six" unicode="6" 
d="M589 298c0 68 -55 123 -122 123c-68 0 -122 -54 -122 -122c0 -67 53 -122 121 -122c67 0 123 54 123 121zM581 786c41 -20 52 -88 22 -126l-52 -64s7 -2 49 -22c102 -49 172 -155 172 -276c0 -168 -138 -306 -306 -306c-169 0 -305 140 -305 308c0 88 43 155 97 222
l194 238c27 35 89 46 129 26z" />
    <glyph glyph-name="seven" unicode="7" 
d="M466 38c-26 -43 -75 -56 -115 -37c-42 20 -61 73 -44 115l210 503h-240c-46 1 -82 41 -81 87s38 82 87 82h358c115 0 98 -101 90 -119z" />
    <glyph glyph-name="eight" unicode="8" 
d="M358 297c-6 -28 1 -69 30 -99c28 -29 64 -34 95 -30c38 4 67 33 81 66c13 33 9 71 -11 100c-26 38 -63 50 -94 49c-46 -2 -89 -36 -101 -86zM407 567c-1 -35 26 -63 59 -63c36 0 62 26 63 59c0 34 -24 63 -59 63c-39 0 -62 -27 -63 -59zM670 453c78 -68 93 -141 82 -215
c-13 -86 -60 -171 -163 -219c-80 -38 -195 -38 -277 13c-102 62 -139 156 -140 241c-1 67 12 116 89 181c-19 35 -31 67 -31 116c0 132 114 226 243 226c130 0 231 -105 233 -236c1 -47 -13 -71 -36 -107z" />
    <glyph glyph-name="nine" unicode="9" 
d="M338 492c0 -67 55 -123 122 -123c68 0 123 55 123 122s-54 122 -121 122c-68 0 -124 -53 -124 -121zM348 11c-37 28 -34 83 -10 117l52 67s-21 8 -62 28c-102 50 -173 148 -173 269c0 169 138 305 307 305c168 0 304 -138 304 -307c0 -87 -43 -148 -97 -214l-193 -239
c-45 -57 -92 -54 -128 -26z" />
    <glyph glyph-name="colon" unicode=":" horiz-adv-x="287" 
d="M173 525c56 0 101 -48 101 -104c0 -55 -46 -100 -102 -100s-102 47 -102 103c0 55 47 101 103 101zM173 195c56 0 101 -47 101 -103s-46 -100 -102 -100s-102 46 -102 102s47 101 103 101z" />
    <glyph glyph-name="semicolon" unicode=";" horiz-adv-x="282" 
d="M173 525c56 0 101 -48 101 -104c0 -55 -46 -100 -102 -100s-102 47 -102 103c0 55 47 101 103 101zM64 100c0 56 48 101 104 101c55 0 101 -47 101 -103s-48 -170 -77 -189c-11 -7 -27 -11 -40 -4c-14 6 -22 22 -23 38c-1 12 9 36 16 57c-46 0 -81 57 -81 100z" />
    <glyph glyph-name="less" unicode="&#x3c;" horiz-adv-x="588" 
d="M525 640v-127l-305 -108l305 -109v-126l-475 177v116z" />
    <glyph glyph-name="equal" unicode="=" horiz-adv-x="875" 
d="M61 609h765v-154h-765v154zM61 356h765v-155h-765v155z" />
    <glyph glyph-name="greater" unicode="&#x3e;" horiz-adv-x="588" 
d="M525 463v-116l-475 -177v126l304 109l-304 108v127z" />
    <glyph glyph-name="question" unicode="?" horiz-adv-x="631" 
d="M412 424c58 42 69 114 33 170s-118 69 -171 31c-34 -24 -44 -62 -58 -102c-14 -41 -55 -67 -96 -56c-41 10 -62 55 -58 86c19 145 142 251 290 251c169 0 275 -132 275 -293c0 -156 -138 -272 -295 -272c-43 0 -78 36 -79 78c0 42 28 75 68 78c46 2 60 6 91 29zM356 188
c54 0 94 -49 94 -103c0 -53 -46 -93 -101 -93c-54 0 -95 48 -95 102s48 94 102 94z" />
    <glyph glyph-name="at" unicode="@" horiz-adv-x="1006" 
d="M606 173c-48 -76 -103 -100 -164 -99c-43 0 -104 20 -139 78c-39 64 -23 171 10 234c43 87 123 147 204 155c35 2 96 -7 126 -49c6 -7 10 -17 18 -30l18 61h136l-66 -230c-6 -24 -38 -114 -17 -137c12 -12 28 -16 51 -12c57 12 92 66 113 122c37 89 42 204 -21 297
c-78 106 -237 131 -323 128c-124 -7 -245 -60 -334 -218c-64 -114 -69 -276 -6 -391c66 -125 185 -175 295 -182c126 -9 235 21 360 96l29 -41c-192 -123 -415 -160 -607 -64v-1c-134 67 -221 200 -233 346c-10 136 34 299 197 417c150 106 377 119 524 55v0
c109 -48 184 -148 200 -265c11 -84 -13 -242 -112 -319c-52 -42 -129 -63 -188 -42c-42 16 -63 42 -71 91zM427 210c-1 -28 3 -48 26 -61c18 -13 43 -11 61 0c66 31 108 198 112 242c2 24 -1 54 -24 71c-17 13 -45 12 -59 7c-73 -30 -115 -221 -116 -259z" />
    <glyph glyph-name="A" unicode="A" horiz-adv-x="800" 
d="M255 122l-38 -79c-21 -44 -72 -64 -116 -44c-43 20 -64 72 -45 117l288 633c17 39 60 47 85 47c30 0 70 -6 89 -48l280 -632c19 -45 -2 -97 -46 -117s-94 0 -116 44l-37 79h-344zM530 277l-103 234l-104 -234h207z" />
    <glyph glyph-name="B" unicode="B" horiz-adv-x="671" 
d="M251 624v-153h142c41 0 77 33 77 75s-33 78 -75 78h-144zM491 244c0 48 -39 86 -87 86h-153v-173h156c48 0 84 40 84 87zM668 207c-13 -129 -125 -207 -257 -207h-249c-48 0 -88 39 -88 87v614s38 87 88 87h199c137 0 196 -25 247 -114c33 -57 36 -149 0 -210
c-9 -16 -17 -25 -39 -48c79 -43 109 -118 99 -209z" />
    <glyph glyph-name="C" unicode="C" horiz-adv-x="793" 
d="M465 -8c-223 0 -403 182 -403 404c0 220 182 400 403 400c116 0 221 -50 295 -128c39 -44 30 -101 -6 -130s-90 -25 -119 11c-42 46 -103 76 -170 76c-127 0 -231 -104 -231 -230c-1 -127 104 -232 231 -232c68 0 130 31 174 79c33 35 90 37 123 5s34 -88 3 -122
c-75 -83 -181 -133 -300 -133z" />
    <glyph glyph-name="D" unicode="D" horiz-adv-x="777" 
d="M169 0c-49 0 -89 39 -89 87v614s38 87 89 87h199c236 -1 404 -164 412 -384c7 -221 -153 -404 -385 -404h-226zM368 162c129 1 232 98 233 229c1 128 -110 234 -240 233h-104v-464z" />
    <glyph glyph-name="E" unicode="E" horiz-adv-x="586" 
d="M166 0c-48 0 -88 39 -88 87v614s38 87 88 87h351c46 1 84 -32 85 -78c1 -45 -33 -83 -78 -84h-270v-158h210c41 0 76 -33 76 -74s-33 -76 -74 -76h-211v-165h252c46 0 84 -25 84 -72c0 -45 -33 -81 -78 -81h-347z" />
    <glyph glyph-name="F" unicode="F" horiz-adv-x="584" 
d="M249 468h209c41 0 76 -33 76 -74s-32 -76 -74 -76h-211v-239c0 -48 -39 -87 -88 -87c-48 0 -88 39 -88 87v622s38 87 88 87h351c45 1 83 -32 84 -78c1 -45 -32 -83 -78 -84h-269v-158z" />
    <glyph glyph-name="G" unicode="G" horiz-adv-x="795" 
d="M525 166c55 6 85 31 85 74v61h-131c-44 0 -81 34 -82 78c-1 45 34 81 78 83c44 1 242 0 242 0c60 0 70 -28 70 -108v-71c0 -124 10 -145 -110 -230c-81 -42 -117 -55 -199 -61c-219 0 -418 169 -417 389c1 223 170 415 388 415c42 0 87 -4 120 -11c45 -10 93 -28 142 -73
c34 -30 48 -90 16 -123s-80 -38 -121 -12c-12 8 -33 23 -45 30c-35 14 -50 20 -106 20c-123 0 -221 -108 -219 -231s106 -225 227 -231c22 -2 46 -1 62 1z" />
    <glyph glyph-name="H" unicode="H" horiz-adv-x="750" 
d="M566 486v222c0 49 39 88 87 88c49 0 88 -39 88 -88v-629c0 -48 -39 -87 -88 -87c-48 0 -87 39 -87 87v236h-315v-236c0 -48 -39 -87 -88 -87c-48 0 -88 39 -88 87v629c0 49 40 88 88 88c49 0 88 -39 88 -88v-222h315z" />
    <glyph glyph-name="I" unicode="I" horiz-adv-x="261" 
d="M251 79c0 -48 -39 -87 -88 -87c-48 0 -88 39 -88 87v629c0 50 40 88 88 88c49 0 88 -39 88 -88v-629z" />
    <glyph glyph-name="J" unicode="J" horiz-adv-x="656" 
d="M299 165c38 -17 85 -17 116 6c63 45 55 127 55 173v364c0 50 40 88 88 88c49 0 88 -39 88 -88v-381c0 -116 -7 -213 -152 -297c-82 -49 -194 -50 -280 -7c-108 54 -154 134 -163 231c0 5 2 14 2 21c0 48 29 94 78 99c48 5 90 -22 99 -78c8 -55 12 -103 69 -131z" />
    <glyph glyph-name="K" unicode="K" horiz-adv-x="705" 
d="M691 141c35 -34 33 -90 -1 -124c-35 -35 -88 -33 -123 0l-316 297v-235c0 -48 -39 -87 -88 -87c-48 0 -88 39 -88 87v629c0 50 40 88 88 88c49 0 88 -39 88 -88v-231l295 291c33 32 92 36 126 1c34 -33 36 -90 1 -124l-248 -246z" />
    <glyph glyph-name="L" unicode="L" horiz-adv-x="554" 
d="M248 174h233c49 0 87 -40 87 -89c0 -48 -39 -85 -87 -85h-321c-48 0 -88 38 -88 86v622c0 50 40 88 88 88c49 0 88 -39 88 -88v-534z" />
    <glyph glyph-name="M" unicode="M" horiz-adv-x="926" 
d="M532 8c-11 -12 -25 -16 -41 -16c-20 0 -39 6 -49 26c-21 38 -27 63 -43 108c-32 112 -85 279 -91 281c-6 -3 -95 -362 -95 -362c-16 -46 -71 -65 -115 -46s-58 67 -47 116l147 593c11 49 40 88 89 88c48 0 68 -36 87 -88l120 -329h2s124 328 124 329c16 52 38 88 86 88
s78 -39 89 -88l138 -593c10 -49 -4 -97 -48 -116s-101 -2 -115 46l-87 362l-99 -283c-19 -49 -29 -84 -52 -116z" />
    <glyph glyph-name="N" unicode="N" horiz-adv-x="754" 
d="M567 708c0 49 39 88 87 88c49 0 89 -39 89 -88v-629c0 -49 -37 -87 -85 -87c-38 0 -74 46 -120 104c0 0 -286 364 -286 361v-378c0 -48 -39 -87 -88 -87c-48 0 -88 39 -88 87v629c0 50 38 88 88 88c44 0 74 -45 122 -105l281 -360v377z" />
    <glyph glyph-name="O" unicode="O" 
d="M465 796c222 0 404 -180 404 -402s-182 -402 -404 -402c-223 0 -402 182 -403 404c-1 220 182 400 403 400zM242 395c-1 -123 100 -223 223 -223c122 0 223 100 223 222s-101 222 -223 222c-123 0 -223 -100 -223 -221z" />
    <glyph glyph-name="P" unicode="P" horiz-adv-x="649" 
d="M249 79c0 -48 -39 -87 -88 -87c-48 0 -88 39 -88 87v622c0 49 40 87 88 87h160c112 0 211 -10 286 -143c49 -88 51 -201 -3 -291c-73 -122 -172 -138 -293 -138h-62v-137zM346 373c65 0 127 57 127 128c0 70 -56 127 -127 127h-97v-255h97z" />
    <glyph glyph-name="Q" unicode="Q" 
d="M239 395c-1 -123 100 -223 223 -223c122 0 223 100 223 222s-101 222 -223 222c-123 0 -223 -100 -223 -221zM687 59c-63 -44 -150 -67 -225 -67c-223 0 -402 182 -403 404c-1 220 182 400 403 400c222 0 404 -180 404 -402c0 -69 -20 -145 -55 -200l57 -45
c40 -32 40 -96 4 -134c-35 -38 -109 -22 -134 0z" />
    <glyph glyph-name="R" unicode="R" horiz-adv-x="653" 
d="M347 380c65 0 127 50 127 121c0 70 -54 127 -127 127h-97v-248h97zM250 222v-143c0 -48 -39 -87 -88 -87c-48 0 -88 39 -88 87v622c0 49 40 87 88 87h160c112 0 211 -10 286 -143c50 -88 56 -193 1 -286c-36 -60 -91 -95 -126 -110l144 -103c34 -24 45 -81 19 -118
c-26 -36 -79 -49 -118 -19z" />
    <glyph glyph-name="S" unicode="S" horiz-adv-x="641" 
d="M305 793c60 6 219 0 284 -91c22 -31 26 -67 12 -96c-15 -31 -44 -49 -72 -49c-42 -1 -96 69 -145 84c-26 7 -77 10 -106 -18c-20 -20 -26 -47 -19 -70c13 -43 66 -52 115 -69l42 -12c108 -30 187 -64 215 -152c17 -65 4 -174 -62 -243c-83 -85 -213 -96 -303 -76
c-65 15 -179 70 -205 148c-9 29 -10 69 14 97c21 25 49 31 79 26c50 -10 102 -96 182 -113c30 -6 79 -1 109 29c20 20 27 54 20 79c-14 45 -78 60 -138 80l-52 15c-86 32 -170 55 -192 148c-12 59 1 154 69 217c45 42 101 62 153 66z" />
    <glyph glyph-name="T" unicode="T" horiz-adv-x="698" 
d="M293 612h-159c-50 0 -88 40 -88 89c0 48 39 87 88 87h493c48 0 87 -39 87 -87c0 -49 -39 -89 -87 -89h-159v-535c0 -49 -39 -85 -88 -85c-48 0 -87 36 -87 85v535z" />
    <glyph glyph-name="U" unicode="U" horiz-adv-x="712" 
d="M527 708c0 49 39 88 87 88c49 0 89 -38 89 -88v-407c0 -172 -145 -309 -318 -309s-310 93 -310 320l-1 396c0 50 40 88 88 88c49 0 88 -39 88 -88v-394c2 -91 53 -149 130 -149c79 0 147 55 147 132v411z" />
    <glyph glyph-name="V" unicode="V" horiz-adv-x="748" 
d="M314 64l-260 611c-19 47 3 96 48 114c44 18 96 -5 114 -49l185 -435l187 435c18 44 70 67 114 49c45 -18 67 -67 48 -114l-262 -616c-25 -58 -49 -67 -95 -67c-32 0 -56 17 -79 72z" />
    <glyph glyph-name="W" unicode="W" horiz-adv-x="1086" 
d="M383 -1c-26 -10 -48 -10 -68 0c-47 22 -68 75 -79 112l-180 580c-16 52 16 96 62 104c46 7 95 -18 109 -62l118 -381l99 318c12 42 40 100 89 119c21 9 62 11 86 -5c33 -21 63 -79 73 -116l104 -333l123 397c16 50 62 70 108 60c49 -9 78 -51 60 -108l-178 -574
c-11 -37 -33 -89 -81 -111c-20 -10 -42 -11 -67 0c-48 21 -75 96 -82 121l-112 357l-108 -351c-7 -24 -27 -108 -76 -127z" />
    <glyph glyph-name="X" unicode="X" horiz-adv-x="691" 
d="M264 387l-201 268c-31 40 -22 95 17 123c39 29 95 21 123 -18l171 -228l171 228c27 38 84 47 123 18c39 -28 49 -83 17 -123l-201 -267l193 -257c28 -40 22 -93 -17 -122c-38 -28 -96 -22 -125 16l-161 214l-161 -214c-29 -38 -87 -44 -124 -16c-39 29 -46 82 -17 122z
" />
    <glyph glyph-name="Y" unicode="Y" horiz-adv-x="698" 
d="M466 325v-248c0 -49 -39 -85 -88 -85c-48 0 -87 36 -87 85v251l-223 332c-31 43 -18 97 24 122c39 26 96 13 120 -24l166 -250l168 250c25 38 81 50 120 24c42 -25 53 -79 23 -123z" />
    <glyph glyph-name="Z" unicode="Z" horiz-adv-x="679" 
d="M607 566l-292 -390h273c50 0 87 -40 87 -89c0 -48 -40 -87 -88 -87h-439c-49 0 -88 39 -88 87c0 49 14 61 58 121l305 404h-275c-50 0 -88 40 -88 89c0 48 39 87 88 87h439c58 0 95 -30 95 -84c0 -42 -14 -57 -75 -138z" />
    <glyph glyph-name="bracketleft" unicode="[" horiz-adv-x="345" 
d="M202 740v-803h108v-53h-235v904h235v-48h-108z" />
    <glyph glyph-name="backslash" unicode="\" horiz-adv-x="790" 
d="M81 737c-29 40 -21 94 18 122c39 29 96 22 124 -17l536 -711c29 -39 23 -93 -16 -122c-38 -28 -97 -23 -126 15z" />
    <glyph glyph-name="bracketright" unicode="]" horiz-adv-x="345" 
d="M28 787h235v-904h-235v53h108v803h-108v48z" />
    <glyph glyph-name="asciicircum" unicode="^" horiz-adv-x="384" 
d="M216 633l42 -31c30 -21 73 -17 95 12c22 30 18 71 -13 97c-15 15 -63 61 -103 81c-8 5 -28 6 -38 0c-40 -22 -90 -66 -107 -81c-30 -27 -35 -67 -13 -97c22 -29 65 -33 95 -12z" />
    <glyph glyph-name="underscore" unicode="_" horiz-adv-x="562" 
d="M572 -141h-583v67h583v-67z" />
    <glyph glyph-name="grave" unicode="`" horiz-adv-x="285" 
d="M154 612c27 -27 77 -24 102 4c25 29 21 76 -4 102l-60 57c-23 23 -73 29 -101 4c-29 -26 -31 -75 -5 -101z" />
    <glyph glyph-name="a" unicode="a" horiz-adv-x="541" 
d="M221 193c-1 -43 34 -80 77 -81s80 33 81 77c1 43 -33 80 -77 81c-43 1 -80 -34 -81 -77zM271 -6c-109 -9 -206 72 -214 182c-9 109 72 205 180 214c44 2 98 -13 139 -34c0 33 4 63 -24 79c-49 28 -100 10 -147 -18c-27 -16 -62 -6 -77 21c-16 28 -2 65 20 80
c26 20 35 27 67 37c63 20 189 24 257 -36c63 -53 62 -162 61 -207v-193c-1 -34 7 -85 -42 -116c-19 -12 -47 -16 -71 -5c-13 6 -23 17 -41 41c-30 -19 -69 -41 -108 -45z" />
    <glyph glyph-name="b" unicode="b" horiz-adv-x="667" 
d="M362 411c-73 0 -128 -65 -128 -139c0 -73 65 -129 139 -129c75 0 129 66 129 139c0 74 -66 129 -140 129zM373 568c159 0 290 -129 290 -288s-132 -288 -291 -288c-58 0 -103 31 -143 58c-12 -32 -39 -58 -79 -58c-47 0 -77 25 -77 62v670c0 39 30 72 77 72
c44 0 79 -31 79 -72v-209c43 35 89 53 144 53z" />
    <glyph glyph-name="c" unicode="c" horiz-adv-x="585" 
d="M312 565c67 9 178 -7 243 -77c24 -25 30 -50 24 -76c-7 -24 -25 -52 -51 -61c-42 -15 -58 11 -104 40c-37 22 -85 25 -126 10c-41 -14 -80 -63 -80 -100c0 -38 6 -81 48 -118c32 -30 75 -40 118 -30c20 5 35 13 58 30c25 19 39 26 59 28c23 2 49 -12 66 -36
c14 -19 18 -51 8 -73c-22 -54 -117 -96 -161 -104c-76 -16 -182 -4 -263 77s-98 180 -83 258c17 87 70 173 173 214c32 13 55 16 71 18z" />
    <glyph glyph-name="d" unicode="d" horiz-adv-x="661" 
d="M496 515v209c0 41 35 72 79 72c47 0 77 -33 77 -72v-670c0 -37 -30 -62 -77 -62c-40 0 -67 26 -79 58c-40 -27 -85 -58 -143 -58c-159 0 -291 129 -291 288s131 288 290 288c55 0 101 -18 144 -53zM223 282c0 -73 54 -139 129 -139c74 0 139 56 139 129
c0 74 -55 139 -129 139c-73 0 -139 -55 -139 -129z" />
    <glyph glyph-name="e" unicode="e" horiz-adv-x="603" 
d="M527 53c-56 -48 -147 -61 -193 -61c-158 0 -274 143 -273 301c1 166 135 275 300 275c106 0 151 -39 189 -84c22 -27 38 -63 46 -100c10 -55 -28 -73 -38 -77l-295 -117c53 -50 89 -65 138 -36c18 10 25 18 36 26c39 33 80 28 108 -3c28 -32 29 -74 0 -107
c-7 -7 -11 -11 -18 -17zM221 292l207 87c-9 26 -80 45 -130 24c-47 -20 -80 -67 -77 -111z" />
    <glyph glyph-name="f" unicode="f" horiz-adv-x="428" 
d="M323 568c55 0 83 -33 83 -76s-26 -77 -79 -77h-45v-353c0 -34 -34 -70 -77 -70c-44 0 -79 36 -79 70v353c-50 0 -81 34 -81 77s37 75 83 76v39c0 96 53 170 143 185c43 8 86 0 113 -16c34 -23 60 -54 60 -92c1 -25 -8 -45 -19 -59c-26 -29 -70 -36 -100 -5
c-14 13 -43 19 -43 -15v-37h41z" />
    <glyph glyph-name="g" unicode="g" horiz-adv-x="616" 
d="M456 521c11 29 35 47 69 47c75 0 85 -60 86 -101v-381c0 -81 5 -156 -102 -227c-93 -62 -229 -62 -310 -31c-36 14 -87 46 -98 91c-5 24 -3 48 15 69c19 23 45 28 69 24c30 -6 41 -17 72 -38c23 -15 52 -28 81 -25c38 5 72 9 99 44c22 28 18 58 18 88
c-94 -56 -175 -62 -254 -23c-88 44 -129 120 -139 204c-8 76 4 180 96 256c65 54 152 57 221 42c25 -6 38 -15 77 -39zM222 301c1 -64 56 -114 120 -113c65 1 115 53 114 118c-1 64 -55 115 -119 114s-116 -54 -115 -119z" />
    <glyph glyph-name="h" unicode="h" horiz-adv-x="585" 
d="M579 63c0 -33 -35 -71 -77 -71c-45 0 -79 38 -79 71v187c0 35 4 121 -51 155c-22 13 -62 16 -93 -2c-58 -36 -51 -95 -51 -142v-198c0 -33 -35 -71 -77 -71c-45 0 -79 38 -79 71v670c0 38 34 63 79 63c46 0 77 -26 77 -63v-183c57 22 177 30 241 -7
c84 -49 110 -138 110 -220v-260z" />
    <glyph glyph-name="i" unicode="i" horiz-adv-x="236" 
d="M227 64c0 -33 -35 -72 -78 -72c-44 0 -79 39 -79 72v431c0 36 35 73 79 73c43 0 78 -37 78 -73v-431zM155 796c52 0 92 -45 92 -96c0 -52 -44 -92 -95 -92c-52 0 -93 44 -93 96s44 92 96 92z" />
    <glyph glyph-name="j" unicode="j" horiz-adv-x="236" 
d="M228 53c0 -80 -1 -167 -107 -224c-39 -21 -80 -29 -121 -12c-25 10 -39 33 -43 60c-4 26 6 50 38 71c57 38 75 39 75 107v440c0 36 36 73 80 73c43 0 78 -37 78 -73v-442zM156 796c52 0 92 -45 92 -96c0 -52 -44 -92 -95 -92c-52 0 -93 44 -93 96s42 92 96 92z" />
    <glyph glyph-name="k" unicode="k" horiz-adv-x="572" 
d="M368 297l180 -178c28 -29 28 -78 -1 -106c-30 -29 -79 -27 -105 0l-215 214v-164c0 -33 -35 -71 -77 -71c-45 0 -79 38 -79 71v661c0 36 34 72 79 72c42 0 77 -37 77 -72v-340l211 166c33 26 86 23 113 -10c28 -34 23 -87 -13 -112z" />
    <glyph glyph-name="l" unicode="l" horiz-adv-x="236" 
d="M229 64c0 -33 -35 -72 -78 -72c-44 0 -79 39 -79 72v659c0 36 35 73 79 73c43 0 78 -37 78 -73v-659z" />
    <glyph glyph-name="m" unicode="m" horiz-adv-x="901" 
d="M893 63c0 -33 -35 -71 -78 -71c-44 0 -79 38 -79 71v201c0 35 6 108 -45 140c-22 13 -59 16 -84 2c-53 -31 -46 -85 -46 -131v-211c0 -33 -35 -72 -78 -72c-44 0 -79 39 -79 72v211c0 32 5 103 -47 131c-24 12 -57 11 -82 -1c-52 -26 -44 -107 -44 -139l1 -202
c0 -33 -35 -72 -78 -72s-79 39 -79 72v259c0 72 18 142 103 200c72 48 155 59 226 29c34 -15 52 -23 83 -45c90 68 194 78 279 34c109 -56 127 -142 127 -243v-235z" />
    <glyph glyph-name="n" unicode="n" horiz-adv-x="583" 
d="M229 64c0 -33 -36 -72 -79 -72c-44 0 -78 39 -78 72v202c0 155 18 196 69 243c23 23 63 44 99 52c73 14 158 10 230 -38c85 -58 103 -129 103 -201v-258c0 -33 -36 -72 -79 -72s-78 39 -78 72v258c0 51 -43 92 -94 93c-50 1 -93 -40 -93 -90v-261z" />
    <glyph glyph-name="o" unicode="o" horiz-adv-x="644" 
d="M350 568c159 0 290 -130 290 -289s-130 -287 -290 -287s-290 130 -290 289s131 287 290 287zM215 281c0 -74 60 -135 135 -135s135 59 135 134s-60 135 -135 135s-135 -60 -135 -134z" />
    <glyph glyph-name="p" unicode="p" horiz-adv-x="670" 
d="M241 281c0 -74 60 -135 135 -135s135 59 135 134s-60 135 -135 135s-135 -60 -135 -134zM228 -111c0 -44 -33 -80 -76 -81s-84 34 -84 77v542c0 48 -4 118 56 138c13 4 58 6 73 -8c17 -14 17 -22 21 -35c45 29 100 46 158 46c159 0 290 -130 290 -289
s-130 -287 -290 -287c-61 0 -105 10 -148 42v-145z" />
    <glyph glyph-name="q" unicode="q" horiz-adv-x="667" 
d="M352 414c-75 0 -135 -60 -135 -135s60 -134 135 -134s135 60 135 135c0 74 -60 134 -135 134zM659 -111c0 -44 -33 -80 -76 -81s-81 34 -81 77v149c-44 -32 -89 -42 -150 -42c-160 0 -290 128 -290 287s131 289 290 289c58 0 113 -17 158 -46c4 13 4 22 21 35
c16 13 59 13 73 8c61 -21 55 -95 55 -138v-538z" />
    <glyph glyph-name="r" unicode="r" horiz-adv-x="450" 
d="M391 564c41 -9 57 -47 57 -80c0 -29 -10 -67 -44 -88c-24 -13 -62 -18 -95 -2c-31 15 -43 23 -60 16c-21 -10 -18 -29 -18 -66v-280c0 -33 -34 -72 -77 -72s-79 39 -79 72v441c0 38 36 63 79 63s73 -10 78 -45c41 35 102 52 159 41z" />
    <glyph glyph-name="s" unicode="s" horiz-adv-x="513" 
d="M239 565c31 4 173 12 219 -59c15 -22 23 -46 13 -71c-9 -24 -28 -44 -55 -45c-50 -2 -76 34 -130 48c-20 6 -31 0 -39 -9c-6 -8 -9 -19 -3 -32c14 -26 70 -40 93 -46l18 -5c63 -19 126 -32 150 -108c17 -51 3 -123 -34 -170c-56 -69 -158 -80 -213 -75
c-53 4 -157 39 -193 105c-14 26 -20 58 -5 85c13 24 31 38 57 40c57 5 70 -40 134 -77c21 -11 51 -22 76 -10c15 7 25 25 26 39c1 10 -4 27 -19 34c-25 10 -157 32 -215 92c-38 40 -43 100 -28 147c24 76 78 108 148 117z" />
    <glyph glyph-name="t" unicode="t" horiz-adv-x="391" 
d="M292 415v-351c0 -33 -35 -72 -78 -72s-79 39 -79 72v351h-16c-39 0 -73 32 -73 72s32 73 71 73h18v109c0 36 36 73 79 73s78 -37 78 -73v-109h43c39 0 71 -33 71 -73s-34 -72 -73 -72h-41z" />
    <glyph glyph-name="u" unicode="u" horiz-adv-x="582" 
d="M416 495c0 34 36 73 79 73s78 -39 78 -73l-1 -201c0 -156 -17 -196 -68 -243c-23 -24 -64 -45 -99 -52c-73 -15 -158 -11 -230 38c-85 58 -103 128 -103 200v258c0 34 35 73 79 73c43 0 78 -39 78 -73v-258c0 -50 43 -94 93 -93c51 1 94 40 94 91v260z" />
    <glyph glyph-name="v" unicode="v" horiz-adv-x="576" 
d="M417 97c-26 -62 -45 -105 -110 -105c-63 0 -69 39 -104 113l-151 361c-16 39 -8 78 32 95c37 15 86 9 104 -35l124 -294l125 295c17 43 67 46 105 35c41 -13 50 -52 32 -94z" />
    <glyph glyph-name="w" unicode="w" horiz-adv-x="820" 
d="M700 94c-21 -67 -34 -102 -100 -102c-68 0 -83 58 -103 121l-62 188l-64 -197c-24 -72 -39 -112 -111 -112c-64 0 -73 41 -94 105l-119 373c-11 36 6 81 43 94c35 12 84 -4 94 -45l84 -249l60 187c22 73 39 111 111 111s82 -42 106 -117l57 -176l82 244
c16 45 58 56 95 45c38 -12 53 -57 42 -94z" />
    <glyph glyph-name="x" unicode="x" horiz-adv-x="557" 
d="M307 169l-138 -157c-17 -20 -68 -30 -97 -8c-33 24 -39 73 -13 106l150 175l-138 164c-27 33 -18 83 14 106c30 21 78 15 96 -7l125 -148l127 148c18 21 68 28 97 6c33 -24 39 -75 13 -105c-18 -23 -140 -164 -140 -164l146 -173c22 -27 21 -82 -12 -107
c-29 -22 -80 -14 -97 6z" />
    <glyph glyph-name="y" unicode="y" horiz-adv-x="563" 
d="M347 -28c-41 -94 -77 -147 -165 -162c-40 -6 -103 -3 -142 46c-20 25 -26 48 -20 74c5 23 20 43 44 53c13 5 33 8 53 3c16 -3 31 -23 47 -19c21 6 30 22 43 49l22 51l-174 388c-16 37 -13 83 22 103c34 19 89 7 103 -23l129 -287l128 282c17 38 71 47 105 27
c33 -20 38 -66 22 -103z" />
    <glyph glyph-name="z" unicode="z" horiz-adv-x="528" 
d="M278 143h170c39 0 69 -36 68 -75c-1 -38 -39 -68 -74 -68h-304c-32 0 -62 15 -77 44c-14 28 -9 57 6 85c14 21 226 286 226 286h-153c-38 0 -69 36 -68 75s39 70 74 70h287c32 0 62 -16 77 -46c14 -27 9 -57 -6 -84c-14 -21 -36 -46 -60 -78z" />
    <glyph glyph-name="braceleft" unicode="{" horiz-adv-x="530" 
d="M503 788l1 -48c-37 0 -95 -21 -129 -56c-42 -41 -30 -71 -35 -127v-56c0 -56 5 -121 -62 -168c-42 -32 -114 -43 -160 -52c150 -23 222 -49 222 -220v-50c1 -53 -12 -102 59 -151c37 -25 67 -32 104 -36v-47c-57 0 -171 12 -227 70c-49 52 -46 99 -46 161v58
c0 49 11 110 -58 154c-34 20 -79 27 -116 33v57c134 22 173 51 174 189v53c0 65 -2 143 85 193c57 35 115 42 188 43z" />
    <glyph glyph-name="bar" unicode="|" horiz-adv-x="664" 
d="M185 -117h-78v904h78v-904z" />
    <glyph glyph-name="braceright" unicode="}" horiz-adv-x="530" 
d="M56 787c37 1 172 -16 224 -69c49 -51 45 -99 48 -167v-63c0 -44 0 -103 53 -141c36 -28 72 -32 122 -40v-58c-115 -14 -174 -42 -174 -171v-69c-2 -85 -1 -150 -97 -200c-55 -26 -104 -30 -176 -36v50c133 15 157 72 160 185v51c0 42 -1 122 59 169c45 32 114 44 162 51
c-152 28 -221 53 -221 227v54c0 57 8 112 -75 155c-24 12 -50 18 -85 23v49z" />
    <glyph glyph-name="asciitilde" unicode="~" horiz-adv-x="451" 
d="M162 793c26 5 46 3 75 -8c42 -15 55 -20 75 -18c29 3 54 34 85 30c18 -2 34 -13 41 -40c7 -25 -3 -56 -21 -79c-29 -39 -70 -52 -110 -52c-64 0 -90 45 -133 24c-41 -20 -52 -25 -74 -18c-18 7 -32 26 -33 47c-2 35 12 66 46 94c16 12 31 17 49 20z" />
    <glyph glyph-name="Adieresis" unicode="&#xc4;" horiz-adv-x="813" 
d="M277 122l-38 -79c-21 -44 -71 -64 -116 -44c-43 20 -64 72 -45 117l288 633c18 39 60 47 85 47c31 0 71 -6 90 -48l279 -632c19 -45 -2 -97 -46 -117s-94 0 -115 44l-38 79h-344zM552 277l-103 234l-103 -234h206zM344 1058c46 0 84 -41 83 -88c-1 -46 -41 -83 -88 -82
c-46 1 -84 40 -83 87c1 46 40 83 88 83zM576 1058c47 0 85 -41 84 -88c-1 -46 -41 -82 -88 -82c-46 0 -84 40 -83 87c1 46 40 83 87 83z" />
    <glyph glyph-name="Aring" unicode="&#xc5;" horiz-adv-x="813" 
d="M277 122l-38 -79c-21 -44 -71 -64 -116 -44c-43 20 -64 72 -45 117l288 633c18 39 60 47 85 47c31 0 71 -6 90 -48l279 -632c19 -45 -2 -97 -46 -117s-94 0 -115 44l-38 79h-344zM552 277l-103 234l-103 -234h206zM442 1099c57 0 106 -46 106 -104s-45 -107 -103 -107
s-108 47 -108 105s47 106 105 106zM405 993c0 -20 18 -37 39 -37c20 0 37 18 37 39c0 20 -18 37 -39 37s-37 -18 -37 -39z" />
    <glyph glyph-name="Ccedilla" unicode="&#xc7;" horiz-adv-x="793" 
d="M426 -6c-205 19 -364 194 -364 402c0 220 182 400 403 400c116 0 221 -50 295 -128c39 -44 30 -101 -6 -130s-90 -25 -119 11c-42 46 -103 76 -170 76c-127 0 -231 -104 -231 -230c0 -127 104 -232 231 -232c68 0 130 31 174 79c33 35 90 37 123 5s34 -88 3 -122
c-70 -78 -166 -127 -276 -132l-36 -60c48 8 84 7 121 -22c28 -21 34 -49 34 -73c0 -35 -18 -65 -55 -88c-60 -38 -174 -20 -245 11l23 52c39 -14 104 -34 139 -15c16 9 23 18 23 33c0 17 -6 29 -16 37c-18 16 -51 11 -84 3l-28 23z" />
    <glyph glyph-name="Eacute" unicode="&#xc9;" horiz-adv-x="607" 
d="M160 0c-48 0 -88 39 -88 87v614s38 87 88 87h351c45 1 83 -32 84 -78c1 -45 -32 -83 -78 -84h-269v-158h209c41 0 76 -33 76 -74s-32 -76 -74 -76h-210v-165h252c46 0 84 -25 84 -72c0 -45 -33 -81 -78 -81h-347zM364 907c-28 -27 -77 -24 -103 4c-25 29 -21 76 5 102
l60 57c23 23 72 29 101 4c28 -26 30 -75 4 -101z" />
    <glyph glyph-name="Ntilde" unicode="&#xd1;" horiz-adv-x="757" 
d="M564 708c0 49 39 88 87 88c49 0 89 -39 89 -88v-629c0 -49 -37 -87 -86 -87c-38 0 -73 46 -119 104c0 0 -286 364 -286 361v-378c0 -48 -39 -87 -88 -87c-48 0 -88 39 -88 87v629c0 50 38 88 88 88c43 0 74 -45 121 -105l282 -360v377zM312 1056c25 4 45 2 75 -9
c42 -14 55 -20 75 -17c29 3 53 33 85 29c18 -2 34 -13 41 -40c6 -24 -3 -56 -21 -79c-30 -39 -71 -52 -111 -52c-63 0 -89 46 -133 25c-41 -20 -51 -26 -73 -18c-18 6 -32 25 -33 46c-2 36 12 66 45 95c16 11 32 17 50 20z" />
    <glyph glyph-name="Odieresis" unicode="&#xd6;" horiz-adv-x="888" 
d="M474 796c223 0 405 -180 405 -402s-182 -402 -405 -402c-222 0 -401 182 -402 404c-1 220 182 400 402 400zM252 395c-1 -123 100 -223 222 -223s224 100 224 222s-102 222 -224 222s-222 -100 -222 -221zM369 1058c46 0 84 -41 83 -88c-1 -46 -41 -83 -87 -82
c-47 1 -85 40 -84 87c1 46 40 83 88 83zM602 1058c46 0 84 -41 83 -88c-1 -46 -41 -83 -88 -82c-46 1 -84 40 -83 87c1 46 40 83 88 83z" />
    <glyph glyph-name="Udieresis" unicode="&#xdc;" horiz-adv-x="713" 
d="M524 708c0 49 39 88 87 88c49 0 89 -38 89 -88v-407c0 -172 -145 -309 -319 -309c-172 0 -309 93 -309 320l-1 396c0 50 40 88 88 88c49 0 88 -39 88 -88v-394c2 -91 53 -149 130 -149c79 0 147 55 147 132v411zM283 1058c47 0 85 -41 84 -88c-1 -46 -41 -83 -88 -82
c-46 1 -84 40 -83 87c1 46 40 83 87 83zM516 1058c47 0 85 -41 84 -88c-1 -46 -42 -83 -88 -82s-84 40 -83 87c1 46 40 83 87 83z" />
    <glyph glyph-name="aacute" unicode="&#xe1;" horiz-adv-x="541" 
d="M223 193c-1 -43 34 -80 77 -81c44 -1 80 33 81 77c2 43 -33 80 -76 81c-44 1 -81 -34 -82 -77zM273 -6c-109 -9 -206 72 -214 182c-8 109 72 205 180 214c44 2 98 -13 139 -34c0 33 5 63 -24 79c-48 28 -100 10 -146 -18c-28 -16 -63 -6 -78 21c-16 28 -1 65 20 80
c26 20 35 27 67 37c63 20 189 24 257 -36c63 -53 62 -162 61 -207v-193c-1 -34 7 -85 -42 -116c-19 -12 -47 -16 -70 -5c-14 6 -24 17 -42 41c-30 -19 -69 -41 -108 -45zM370 683c-28 -28 -77 -24 -102 4c-26 28 -21 76 4 101l60 57c23 23 73 30 101 4c29 -25 31 -74 4 -101
z" />
    <glyph glyph-name="agrave" unicode="&#xe0;" horiz-adv-x="541" 
d="M222 193c-1 -43 34 -80 77 -81s80 33 81 77c1 43 -33 80 -77 81c-43 1 -80 -34 -81 -77zM272 -6c-109 -9 -206 72 -214 182c-8 109 72 205 180 214c44 2 98 -13 139 -34c0 33 4 63 -24 79c-48 28 -100 10 -146 -18c-28 -16 -63 -6 -78 21c-16 28 -1 65 20 80
c26 20 35 27 67 37c63 20 189 24 257 -36c63 -53 62 -162 61 -207v-193c-1 -34 7 -85 -42 -116c-19 -12 -47 -16 -71 -5c-13 6 -23 17 -41 41c-30 -19 -69 -41 -108 -45zM285 683c27 -28 76 -24 102 4c25 28 21 76 -4 101l-61 57c-23 23 -72 30 -101 4
c-28 -25 -30 -74 -4 -101z" />
    <glyph glyph-name="acircumflex" unicode="&#xe2;" horiz-adv-x="541" 
d="M222 193c-1 -43 34 -80 77 -81s80 33 81 77c1 43 -33 80 -77 81c-43 1 -80 -34 -81 -77zM272 -6c-109 -9 -206 72 -214 182c-8 109 72 205 180 214c44 2 98 -13 139 -34c0 33 4 63 -24 79c-48 28 -100 10 -146 -18c-28 -16 -63 -6 -78 21c-16 28 -1 65 20 80
c26 20 35 27 67 37c63 20 189 24 257 -36c63 -53 62 -162 61 -207v-193c-1 -34 7 -85 -42 -116c-19 -12 -47 -16 -71 -5c-13 6 -23 17 -41 41c-30 -19 -69 -41 -108 -45zM372 678c29 -22 73 -17 95 12c22 30 18 71 -13 97c-16 15 -63 61 -103 81c-9 4 -29 6 -38 0
c-40 -22 -91 -66 -108 -81c-29 -27 -34 -67 -12 -97c22 -29 65 -34 95 -12l42 31c15 -11 12 -10 42 -31z" />
    <glyph glyph-name="adieresis" unicode="&#xe4;" horiz-adv-x="541" 
d="M221 193c-1 -43 34 -80 77 -81s80 33 81 77c1 43 -33 80 -77 81c-43 1 -80 -34 -81 -77zM271 -6c-109 -9 -206 72 -214 182c-9 109 72 205 180 214c44 2 98 -13 139 -34c0 33 4 63 -24 79c-49 28 -100 10 -147 -18c-27 -16 -62 -6 -77 21c-16 28 -2 65 20 80
c26 20 35 27 67 37c63 20 189 24 257 -36c63 -53 62 -162 61 -207v-193c-1 -34 7 -85 -42 -116c-19 -12 -47 -16 -71 -5c-13 6 -23 17 -41 41c-30 -19 -69 -41 -108 -45zM212 834c46 0 84 -42 83 -88s-41 -82 -87 -82s-85 40 -84 86c1 47 40 84 88 84zM445 834
c46 0 84 -42 83 -88s-41 -82 -88 -82c-46 0 -84 40 -83 86c1 47 40 84 88 84z" />
    <glyph glyph-name="atilde" unicode="&#xe3;" horiz-adv-x="541" 
d="M222 193c-1 -43 34 -80 77 -81s80 33 81 77c1 43 -33 80 -77 81c-43 1 -80 -34 -81 -77zM272 -6c-109 -9 -206 72 -214 182c-8 109 72 205 180 214c44 2 98 -13 139 -34c0 33 4 63 -24 79c-48 28 -100 10 -146 -18c-28 -16 -63 -6 -78 21c-16 28 -1 65 20 80
c26 20 35 27 67 37c63 20 189 24 257 -36c63 -53 62 -162 61 -207v-193c-1 -34 7 -85 -42 -116c-19 -12 -47 -16 -71 -5c-13 6 -23 17 -41 41c-30 -19 -69 -41 -108 -45zM216 831c25 5 45 3 75 -8c42 -15 55 -20 75 -18c29 3 53 34 85 30c18 -3 34 -13 41 -40
c6 -25 -3 -56 -21 -80c-29 -38 -71 -51 -111 -51c-63 0 -89 45 -132 24c-41 -20 -52 -25 -74 -18c-18 7 -32 25 -33 47c-2 35 12 66 45 94c16 12 32 17 50 20z" />
    <glyph glyph-name="aring" unicode="&#xe5;" horiz-adv-x="541" 
d="M222 193c-1 -43 34 -80 77 -81s80 33 81 77c1 43 -33 80 -77 81c-43 1 -80 -34 -81 -77zM272 -6c-109 -9 -206 72 -214 182c-8 109 72 205 180 214c44 2 98 -13 139 -34c0 33 4 63 -24 79c-48 28 -100 10 -146 -18c-28 -16 -63 -6 -78 21c-16 28 -1 65 20 80
c26 20 35 27 67 37c63 20 189 24 257 -36c63 -53 62 -162 61 -207v-193c-1 -34 7 -85 -42 -116c-19 -12 -47 -16 -71 -5c-13 6 -23 17 -41 41c-30 -19 -69 -41 -108 -45zM303 875c58 0 107 -47 107 -105s-45 -106 -103 -106s-108 46 -108 104s47 107 104 107zM267 768
c0 -20 18 -37 39 -37c20 0 36 18 36 39c0 20 -17 37 -39 37c-20 0 -36 -18 -36 -39z" />
    <glyph glyph-name="ccedilla" unicode="&#xe7;" horiz-adv-x="585" 
d="M311 -4c-55 8 -112 30 -160 79c-81 81 -98 180 -83 258c17 87 70 173 173 214c32 13 55 18 71 18c67 9 178 -7 243 -77c24 -25 30 -50 24 -76c-7 -24 -25 -52 -51 -61c-42 -15 -58 11 -104 40c-37 22 -85 25 -126 10c-41 -14 -80 -63 -80 -100c0 -38 6 -81 48 -118
c32 -30 75 -40 118 -30c20 5 35 13 58 30c25 19 39 28 59 28c23 0 49 -12 66 -36c14 -19 18 -51 8 -73c-22 -54 -117 -96 -161 -104c-11 -4 -31 -6 -40 -5l-36 -59c48 8 85 7 121 -21c28 -22 34 -50 34 -74c0 -35 -18 -65 -55 -88c-60 -38 -174 -20 -245 11l23 53
c39 -15 104 -35 139 -16c16 9 23 18 23 33c0 17 -6 29 -16 37c-17 16 -51 11 -84 3l-28 23z" />
    <glyph glyph-name="eacute" unicode="&#xe9;" horiz-adv-x="603" 
d="M529 53c-56 -48 -146 -61 -193 -61c-158 0 -274 143 -273 301c1 166 135 275 301 275c105 0 150 -39 188 -84c22 -27 38 -63 47 -100c9 -55 -29 -73 -38 -77l-295 -117c42 -44 88 -56 137 -35c17 7 27 17 36 25c39 33 79 28 108 -3c28 -31 29 -74 0 -107
c-6 -7 -11 -11 -18 -17zM223 292l207 87c-9 26 -80 45 -130 24c-47 -20 -80 -67 -77 -111zM388 683c-28 -28 -77 -24 -102 4c-26 28 -22 76 4 101l60 57c23 23 73 30 101 4c28 -25 31 -74 4 -101z" />
    <glyph glyph-name="egrave" unicode="&#xe8;" horiz-adv-x="603" 
d="M529 53c-56 -48 -146 -61 -193 -61c-158 0 -274 143 -273 301c1 166 135 275 301 275c105 0 150 -39 188 -84c22 -27 38 -63 47 -100c9 -55 -29 -73 -38 -77l-295 -117c42 -44 88 -56 137 -35c17 7 27 17 36 25c39 33 79 28 108 -3c28 -31 29 -74 0 -107
c-6 -7 -11 -11 -18 -17zM223 292l207 87c-9 26 -80 45 -130 24c-47 -20 -80 -67 -77 -111zM306 683c27 -28 77 -24 102 4s21 76 -4 101l-60 57c-24 23 -73 30 -102 4c-28 -25 -30 -74 -4 -101z" />
    <glyph glyph-name="ecircumflex" unicode="&#xea;" horiz-adv-x="603" 
d="M528 53c-56 -48 -147 -61 -193 -61c-158 0 -274 143 -273 301c1 166 135 275 300 275c106 0 151 -39 189 -84c22 -27 38 -63 46 -100c10 -55 -28 -73 -37 -77l-296 -117c43 -44 89 -56 137 -35c18 7 28 17 37 25c39 33 79 28 108 -3c28 -31 29 -74 0 -107
c-6 -7 -11 -11 -18 -17zM222 292l207 87c-9 26 -80 45 -130 24c-47 -20 -80 -67 -77 -111zM389 678c29 -22 73 -17 95 12c22 30 18 71 -13 97c-16 15 -63 61 -103 81c-9 4 -29 6 -38 0c-40 -22 -91 -66 -108 -81c-29 -27 -34 -67 -12 -97c22 -29 65 -34 95 -12l42 31
c14 -11 12 -10 42 -31z" />
    <glyph glyph-name="edieresis" unicode="&#xeb;" horiz-adv-x="603" 
d="M529 53c-56 -48 -146 -61 -193 -61c-158 0 -274 143 -273 301c1 166 135 275 301 275c105 0 150 -39 188 -84c22 -27 38 -63 47 -100c9 -55 -29 -73 -38 -77l-295 -117c42 -44 88 -56 137 -35c17 7 27 17 36 25c39 33 79 28 108 -3c28 -31 29 -74 0 -107
c-6 -7 -11 -11 -18 -17zM223 292l207 87c-9 26 -80 45 -130 24c-47 -20 -80 -67 -77 -111zM216 834c46 0 84 -42 83 -88s-41 -82 -87 -82c-47 0 -84 40 -83 86c1 47 40 84 87 84zM449 834c46 0 84 -42 83 -88s-40 -82 -86 -82c-47 0 -86 40 -85 86c1 47 40 84 88 84z" />
    <glyph glyph-name="iacute" unicode="&#xed;" horiz-adv-x="236" 
d="M229 64c0 -33 -35 -72 -78 -72c-44 0 -79 39 -79 72v431c0 36 35 73 79 73c43 0 78 -37 78 -73v-431zM192 683c-28 -28 -77 -24 -102 4c-26 28 -22 76 4 101l60 57c23 23 73 30 101 4c28 -25 31 -74 4 -101z" />
    <glyph glyph-name="igrave" unicode="&#xec;" horiz-adv-x="236" 
d="M232 64c0 -33 -35 -72 -78 -72s-79 39 -79 72v431c0 36 36 73 79 73s78 -37 78 -73v-431zM86 683c28 -28 77 -24 103 4c25 28 21 76 -5 101l-60 57c-23 23 -72 30 -101 4c-28 -25 -30 -74 -4 -101z" />
    <glyph glyph-name="icircumflex" unicode="&#xee;" horiz-adv-x="236" 
d="M226 64c0 -33 -35 -72 -78 -72c-44 0 -80 39 -80 72v431c0 36 36 73 80 73c43 0 78 -37 78 -73v-431zM172 678c29 -22 72 -17 95 12c22 30 18 71 -13 97c-16 15 -63 61 -103 81c-9 4 -29 6 -38 0c-40 -22 -91 -66 -108 -81c-29 -27 -35 -67 -12 -97c22 -29 65 -34 94 -12
l43 31c14 -11 12 -10 42 -31z" />
    <glyph glyph-name="idieresis" unicode="&#xef;" horiz-adv-x="236" 
d="M229 64c0 -33 -35 -72 -78 -72c-44 0 -79 39 -79 72v431c0 36 35 73 79 73c43 0 78 -37 78 -73v-431zM39 834c46 0 84 -42 83 -88s-41 -83 -87 -82c-47 1 -85 40 -83 86c1 47 40 84 87 84zM272 834c46 0 84 -42 83 -88s-41 -82 -87 -82c-47 0 -85 40 -84 86
c1 47 40 84 88 84z" />
    <glyph glyph-name="ntilde" unicode="&#xf1;" horiz-adv-x="583" 
d="M229 64c0 -33 -36 -72 -79 -72c-44 0 -78 39 -78 72v202c0 155 18 196 69 243c23 23 63 44 99 52c73 14 158 10 230 -38c85 -58 103 -129 103 -201v-258c0 -33 -36 -72 -79 -72s-78 39 -78 72v258c0 51 -43 92 -94 93c-50 1 -93 -40 -93 -90v-261zM241 831
c26 5 46 3 75 -8c42 -15 55 -20 75 -18c29 3 54 34 85 30c18 -3 34 -13 41 -40c7 -25 -3 -56 -21 -80c-29 -38 -70 -51 -110 -51c-64 0 -90 45 -133 24c-41 -20 -52 -25 -74 -18c-18 7 -31 25 -33 47c-2 35 12 66 46 94c16 12 31 17 49 20z" />
    <glyph glyph-name="oacute" unicode="&#xf3;" horiz-adv-x="644" 
d="M352 568c159 0 290 -130 290 -289s-130 -287 -290 -287s-290 130 -290 289s131 287 290 287zM217 281c0 -74 60 -135 135 -135s135 59 135 134s-60 135 -135 135s-135 -60 -135 -134zM400 682c-27 -28 -77 -24 -102 4s-21 76 4 101l60 57c24 23 73 30 102 4
c28 -25 30 -75 4 -101z" />
    <glyph glyph-name="ograve" unicode="&#xf2;" horiz-adv-x="644" 
d="M352 568c159 0 290 -130 290 -289s-130 -287 -290 -287s-290 130 -290 289s131 287 290 287zM217 281c0 -74 60 -135 135 -135s135 59 135 134s-60 135 -135 135s-135 -60 -135 -134zM301 682c28 -28 77 -24 103 4c25 28 21 76 -5 101l-60 57c-23 23 -72 30 -101 4
c-28 -25 -30 -75 -4 -101z" />
    <glyph glyph-name="ocircumflex" unicode="&#xf4;" horiz-adv-x="644" 
d="M350 568c159 0 290 -130 290 -289s-130 -287 -290 -287s-290 130 -290 289s131 287 290 287zM215 281c0 -74 60 -135 135 -135s135 59 135 134s-60 135 -135 135s-135 -60 -135 -134zM391 677c29 -22 73 -17 95 12c22 30 18 71 -13 97c-16 15 -63 61 -103 81
c-9 4 -29 5 -38 0c-40 -22 -91 -66 -108 -81c-29 -27 -34 -67 -12 -97c22 -29 65 -34 95 -12l42 31c15 -11 12 -10 42 -31z" />
    <glyph glyph-name="odieresis" unicode="&#xf6;" horiz-adv-x="644" 
d="M352 568c159 0 290 -130 290 -289s-130 -287 -290 -287s-290 130 -290 289s131 287 290 287zM217 281c0 -74 60 -135 135 -135s135 59 135 134s-60 135 -135 135s-135 -60 -135 -134zM243 834c47 0 85 -42 84 -88s-40 -82 -88 -82c-46 0 -84 40 -83 86c1 47 40 84 87 84z
M476 834c47 0 85 -42 84 -88c-2 -46 -42 -82 -88 -82s-84 40 -83 86c1 47 40 84 87 84z" />
    <glyph glyph-name="otilde" unicode="&#xf5;" horiz-adv-x="644" 
d="M348 568c159 0 290 -130 290 -289s-130 -287 -290 -287s-290 130 -290 289s131 287 290 287zM213 281c0 -74 60 -135 135 -135s135 59 135 134s-60 135 -135 135s-135 -60 -135 -134zM277 831c25 5 45 3 75 -8c42 -15 55 -20 75 -18c29 3 54 34 85 30
c18 -3 34 -13 41 -40c7 -25 -3 -56 -21 -80c-29 -38 -70 -51 -111 -51c-63 0 -89 45 -132 24c-41 -20 -52 -25 -74 -18c-18 7 -32 25 -33 47c-2 35 12 66 46 94c15 12 31 17 49 20z" />
    <glyph glyph-name="uacute" unicode="&#xfa;" horiz-adv-x="582" 
d="M418 495c0 34 36 73 79 73c44 0 78 -39 78 -73v-201c0 -156 -18 -196 -69 -243c-23 -24 -63 -45 -99 -52c-73 -15 -158 -11 -230 38c-85 58 -103 128 -103 200v258c0 34 36 73 79 73s78 -39 78 -73v-258c0 -50 43 -94 94 -93c50 1 93 40 93 91v260zM373 683
c-27 -28 -77 -24 -102 4s-21 76 4 101l60 57c23 23 73 30 101 4c29 -25 31 -74 4 -101z" />
    <glyph glyph-name="ugrave" unicode="&#xf9;" horiz-adv-x="582" 
d="M419 495c0 34 36 73 79 73c44 0 78 -39 78 -73v-201c0 -156 -18 -196 -69 -243c-23 -24 -63 -45 -99 -52c-73 -15 -158 -11 -230 38c-85 58 -103 128 -103 200v258c0 34 36 73 79 73s78 -39 78 -73v-258c0 -50 43 -94 94 -93c50 1 93 40 93 91v260zM269 683
c27 -28 77 -24 102 4s21 76 -4 101l-60 57c-24 23 -73 30 -102 4c-28 -25 -30 -74 -4 -101z" />
    <glyph glyph-name="ucircumflex" unicode="&#xfb;" horiz-adv-x="582" 
d="M416 495c0 34 36 73 79 73s78 -39 78 -73v-201c0 -156 -18 -196 -69 -243c-23 -24 -64 -45 -99 -52c-73 -15 -158 -11 -230 38c-85 58 -103 128 -103 200v258c0 34 35 73 79 73c43 0 78 -39 78 -73v-258c0 -50 43 -94 93 -93c51 1 94 40 94 91v260zM365 678
c29 -22 72 -17 94 12c23 30 18 71 -12 97c-16 15 -63 61 -103 81c-9 4 -29 6 -38 0c-40 -22 -91 -66 -108 -81c-29 -27 -35 -67 -13 -97c23 -29 66 -34 95 -12c30 21 28 20 42 31z" />
    <glyph glyph-name="udieresis" unicode="&#xfc;" horiz-adv-x="582" 
d="M416 495c0 34 36 73 79 73s78 -39 78 -73v-201c0 -156 -18 -196 -69 -243c-23 -24 -64 -45 -99 -52c-73 -15 -158 -11 -230 38c-85 58 -103 128 -103 200v258c0 34 35 73 79 73c43 0 78 -39 78 -73v-258c0 -50 43 -94 93 -93c51 1 94 40 94 91v260zM228 834
c46 0 83 -42 83 -88s-40 -82 -88 -82c-46 0 -84 40 -83 86c1 47 40 84 88 84zM460 834c47 0 85 -42 84 -88s-41 -82 -88 -82c-46 0 -83 40 -83 86s40 84 87 84z" />
    <glyph glyph-name="cent" unicode="&#xa2;" horiz-adv-x="594" 
d="M73 335c-14 82 8 203 105 282c34 27 59 37 99 52c-1 38 34 71 71 71c36 0 66 -28 67 -62c42 -12 147 -49 167 -110c6 -19 4 -50 -13 -71c-16 -20 -40 -31 -67 -30c-19 1 -29 5 -62 29c-22 17 -42 23 -63 28c-36 6 -79 -3 -115 -41c-33 -34 -43 -83 -35 -122
c9 -44 36 -82 83 -100c35 -14 84 -13 125 14c48 33 59 43 96 34c24 -7 44 -30 51 -56c6 -24 4 -55 -19 -78c-41 -40 -93 -69 -147 -76c-2 -35 -32 -63 -68 -63c-37 0 -73 30 -71 70c-107 38 -184 113 -204 229z" />
    <glyph glyph-name="sterling" unicode="&#xa3;" horiz-adv-x="707" 
d="M254 0c-35 0 -95 -5 -124 39c-21 32 -24 79 0 119c12 22 19 33 28 53c16 35 19 62 23 85h-22c-45 0 -88 32 -92 79c-3 48 33 92 79 92h7c-16 89 0 193 88 270c74 63 183 70 260 45c89 -30 152 -102 172 -192c7 -30 12 -114 -28 -151c-22 -21 -55 -26 -81 -19
c-30 9 -54 32 -60 64c-10 48 14 79 -33 120c-22 19 -57 24 -86 13c-32 -10 -55 -38 -60 -69c-6 -49 7 -75 16 -81h39c47 0 83 -44 79 -92c-3 -47 -44 -79 -89 -79h-21c-4 -22 -9 -44 -16 -67c-5 -18 -16 -39 -34 -70h318c51 0 82 -37 82 -81c0 -45 -27 -77 -85 -78h-360z
" />
    <glyph glyph-name="bullet" unicode="&#x2022;" horiz-adv-x="277" 
d="M166 524c56 0 102 -46 102 -101c0 -56 -46 -102 -102 -102c-55 0 -101 46 -101 102c0 55 46 101 101 101z" />
    <glyph glyph-name="trademark" unicode="&#x2122;" horiz-adv-x="655" 
d="M646 74c0 -44 -27 -82 -70 -82c-35 0 -72 26 -82 59c-91 -59 -180 -77 -267 -42c-94 39 -143 117 -161 200c-14 73 -8 191 71 275c70 72 158 92 232 81c52 -9 70 -10 126 -50c9 35 46 55 81 52c43 -3 70 -38 70 -82v-411zM224 280c0 -75 61 -135 135 -135
c75 0 135 60 135 135s-60 135 -135 135c-74 0 -135 -60 -135 -135z" />
    <glyph glyph-name="acute" unicode="&#xb4;" horiz-adv-x="279" 
d="M183 612c-27 -27 -77 -24 -102 4c-25 29 -21 76 4 102l60 57c24 23 73 29 102 4c28 -26 30 -75 4 -101z" />
    <glyph glyph-name="dieresis" unicode="&#xa8;" horiz-adv-x="483" 
d="M154 796c46 0 84 -42 83 -88s-41 -83 -87 -82c-47 1 -85 40 -84 86c1 47 40 84 88 84zM387 796c46 0 84 -42 83 -88s-41 -83 -87 -82c-47 1 -85 40 -84 86c1 47 40 84 88 84z" />
    <glyph glyph-name="AE" unicode="&#xc6;" horiz-adv-x="1048" 
d="M379 321h132v258zM228 31c-27 -39 -85 -49 -124 -23c-39 27 -48 85 -22 124c27 39 292 539 292 539c58 109 51 117 184 117h392c46 0 84 -32 85 -78c1 -45 -33 -83 -78 -84h-270v-158h210c41 0 76 -33 76 -74s-33 -76 -74 -76h-211v-165h252c46 0 84 -25 84 -72
c0 -45 -32 -81 -78 -81h-346c-49 0 -88 39 -88 87v82h-207z" />
    <glyph glyph-name="Oslash" unicode="&#xd8;" horiz-adv-x="890" 
d="M556 601c-25 10 -52 15 -82 15c-122 0 -222 -100 -222 -221c0 -27 7 -60 16 -84zM398 182c26 -9 49 -10 76 -10c122 0 224 100 224 222c0 26 -6 58 -14 75zM733 773c35 32 94 30 126 -5c31 -35 35 -90 1 -127l-38 -41c38 -60 57 -129 57 -206c0 -222 -182 -402 -405 -402
c-79 0 -153 23 -215 62l-37 -36c-35 -35 -92 -35 -127 -3c-35 31 -37 90 -5 125l43 42c-39 62 -61 136 -61 214c0 220 182 400 402 400c80 0 156 -24 219 -65z" />
    <glyph glyph-name="infinity" unicode="&#x221e;" horiz-adv-x="563" 
d="M346 -28c-41 -94 -77 -147 -165 -162c-40 -6 -103 -3 -142 46c-20 25 -26 48 -20 74c5 23 20 43 44 53c13 5 33 8 53 3c16 -3 30 -23 47 -19c21 6 30 22 42 49l23 51l-174 388c-16 37 -13 83 22 103c34 19 89 7 103 -23l129 -287l128 282c17 38 71 47 105 27
c33 -20 38 -66 22 -103zM358 683c-27 -28 -77 -24 -102 4s-21 76 4 101l60 57c24 23 73 30 101 4c29 -25 31 -74 5 -101z" />
    <glyph glyph-name="ae" unicode="&#xe6;" horiz-adv-x="901" 
d="M518 292l207 87c-8 26 -80 45 -130 24c-47 -20 -80 -67 -77 -111zM228 193c-1 -43 33 -80 77 -81c43 -1 80 33 81 77c1 43 -34 80 -77 81s-80 -34 -81 -77zM270 -8c-109 0 -204 79 -208 187c-4 109 77 201 186 207c43 0 94 -9 135 -30c0 33 6 63 -25 79
c-49 25 -100 10 -146 -18c-28 -16 -62 -6 -78 21c-16 28 -1 65 20 80c26 20 36 27 67 37c64 20 189 24 257 -36c4 -3 7 -6 10 -9c46 39 99 58 171 58c105 0 143 -38 186 -84c24 -26 40 -63 49 -100c9 -55 -29 -73 -38 -77l-295 -117c42 -44 86 -51 134 -32c18 7 26 13 37 21
c37 26 81 29 110 -2c28 -31 29 -74 0 -107c-6 -7 -11 -11 -18 -17c-56 -48 -146 -61 -193 -61c-70 0 -133 28 -180 74c-39 -44 -116 -74 -181 -74z" />
    <glyph glyph-name="oslash" unicode="&#xf8;" horiz-adv-x="644" 
d="M318 150c9 -2 19 -4 30 -4c75 0 135 59 135 134c0 10 -2 18 -4 28zM379 411c-10 2 -21 4 -31 4c-75 0 -135 -60 -135 -134c0 -10 2 -22 2 -31zM529 557c20 19 76 32 104 4c29 -29 25 -77 0 -103c0 0 -36 -35 -34 -35c25 -43 39 -86 39 -144c0 -159 -130 -287 -290 -287
c-54 0 -105 14 -148 41l-23 -24c-18 -17 -78 -32 -106 -3c-27 28 -28 74 0 101l27 27c-25 43 -40 94 -40 147c0 159 131 287 290 287c55 0 105 -15 148 -42z" />
    <glyph glyph-name="guillemotleft" unicode="&#xab;" horiz-adv-x="522" 
d="M498 302c20 -30 12 -76 -19 -97c-30 -20 -76 -13 -96 19c0 0 -82 120 -88 144c-9 37 11 63 42 107l46 63c22 32 66 39 96 19c31 -20 39 -66 19 -97c-19 -30 -51 -64 -51 -79c-2 -16 32 -48 51 -79zM277 302c20 -30 12 -76 -19 -97c-30 -20 -77 -13 -97 19
c0 0 -81 120 -87 144c-10 37 10 63 42 107l45 63c22 32 67 39 97 19c31 -20 39 -66 19 -97c-19 -30 -51 -64 -51 -79c-3 -16 32 -48 51 -79z" />
    <glyph glyph-name="guillemotright" unicode="&#xbb;" horiz-adv-x="523" 
d="M132 380c0 15 -33 49 -52 79c-20 31 -12 77 19 97s75 13 97 -19l45 -63c32 -44 52 -69 42 -106c-6 -24 -87 -144 -87 -144c-20 -32 -66 -39 -97 -19c-31 21 -39 67 -19 97c19 31 54 62 52 78zM353 380c0 15 -33 49 -52 79c-20 31 -11 77 19 97c31 20 75 13 97 -19l46 -63
c31 -44 51 -69 42 -106c-7 -24 -88 -144 -88 -144c-20 -32 -66 -39 -97 -19c-30 21 -39 67 -19 97c19 31 54 62 52 78z" />
    <glyph glyph-name="Agrave" unicode="&#xc0;" horiz-adv-x="813" 
d="M277 122l-38 -79c-21 -44 -71 -64 -116 -44c-43 20 -64 72 -45 117l288 633c18 39 60 47 85 47c31 0 71 -6 90 -48l279 -632c19 -45 -2 -97 -46 -117s-94 0 -115 44l-38 79h-344zM552 277l-103 234l-103 -234h206zM376 907c28 -27 77 -24 102 4c26 29 21 76 -4 102
l-60 57c-23 23 -73 29 -101 4c-28 -26 -31 -75 -4 -101z" />
    <glyph glyph-name="Atilde" unicode="&#xc3;" horiz-adv-x="813" 
d="M277 122l-38 -79c-21 -44 -71 -64 -116 -44c-43 20 -64 72 -45 117l288 633c18 39 60 47 85 47c31 0 71 -6 90 -48l279 -632c19 -45 -2 -97 -46 -117s-94 0 -115 44l-38 79h-344zM552 277l-103 234l-103 -234h206zM388 1056c25 4 45 2 75 -9c42 -14 54 -20 74 -17
c30 3 54 33 86 29c18 -2 33 -13 41 -40c6 -24 -3 -56 -21 -79c-30 -39 -71 -52 -111 -52c-63 0 -89 46 -133 25c-41 -20 -51 -26 -73 -18c-18 6 -32 25 -33 46c-2 36 12 66 45 95c16 11 32 17 50 20z" />
    <glyph glyph-name="Otilde" unicode="&#xd5;" horiz-adv-x="888" 
d="M474 796c223 0 405 -180 405 -402s-182 -402 -405 -402c-222 0 -401 182 -402 404c-1 220 182 400 402 400zM252 395c-1 -123 100 -223 222 -223s224 100 224 222s-102 222 -224 222s-222 -100 -222 -221zM387 1056c25 4 45 2 75 -9c42 -14 54 -20 74 -17
c30 3 54 33 86 29c18 -2 33 -13 41 -40c6 -24 -3 -56 -21 -79c-30 -39 -71 -52 -111 -52c-63 0 -89 46 -133 25c-41 -20 -51 -26 -73 -18c-18 6 -32 25 -33 46c-2 36 11 66 45 95c16 11 32 17 50 20z" />
    <glyph glyph-name="endash" unicode="&#x2013;" horiz-adv-x="590" 
d="M449 198c39 0 70 34 69 74s-35 69 -73 69h-304c-38 0 -73 -29 -74 -69s31 -74 70 -74h312z" />
    <glyph glyph-name="emdash" unicode="&#x2014;" horiz-adv-x="903" 
d="M770 198c39 0 71 34 70 74s-36 69 -74 69h-625c-38 0 -73 -29 -74 -69s31 -74 70 -74h633z" />
    <glyph glyph-name="quotedblleft" unicode="&#x201c;" horiz-adv-x="496" 
d="M258 596c0 -55 -47 -101 -103 -101s-101 48 -101 104c0 55 47 169 77 188c10 8 26 12 40 4c13 -6 22 -22 23 -38c1 -11 -10 -35 -17 -56c46 0 81 -57 81 -101zM487 596c0 -55 -48 -101 -103 -101c-56 0 -102 48 -102 104c0 55 48 169 77 188c11 8 27 12 40 4
c14 -6 22 -22 24 -38c1 -11 -10 -35 -17 -56c46 0 81 -57 81 -101z" />
    <glyph glyph-name="quotedblright" unicode="&#x201d;" horiz-adv-x="499" 
d="M271 694c0 56 47 102 103 102s101 -48 101 -104s-47 -169 -77 -188c-10 -8 -26 -12 -40 -5c-13 7 -22 23 -23 38c-1 12 10 36 17 57c-46 0 -81 57 -81 100zM42 694c0 56 48 102 103 102c56 0 102 -48 102 -104s-48 -169 -77 -188c-11 -8 -27 -12 -40 -5
c-14 7 -23 23 -24 38c-1 12 10 36 17 57c-46 0 -81 57 -81 100z" />
    <glyph glyph-name="quoteleft" unicode="&#x2018;" horiz-adv-x="280" 
d="M261 596c0 -55 -47 -101 -103 -101s-101 48 -101 104c0 55 47 169 77 188c10 8 26 12 40 4c14 -6 22 -22 23 -38c1 -11 -9 -35 -17 -56c47 0 81 -57 81 -101z" />
    <glyph glyph-name="quoteright" unicode="&#x2019;" horiz-adv-x="280" 
d="M61 694c0 56 48 102 103 102c56 0 102 -48 102 -104s-48 -169 -77 -188c-11 -8 -27 -12 -40 -5c-14 7 -23 23 -24 38c-1 12 10 36 17 57c-46 0 -81 57 -81 100z" />
    <glyph glyph-name="divide" unicode="&#xf7;" horiz-adv-x="626" 
d="M590 510c29 35 33 71 7 100c-25 30 -80 32 -100 7l-414 -507c-24 -32 -22 -75 8 -101c29 -25 75 -24 100 8z" />
    <glyph glyph-name="ydieresis" unicode="&#xff;" horiz-adv-x="563" 
d="M346 -28c-41 -94 -77 -147 -165 -162c-40 -6 -103 -3 -142 46c-20 25 -26 48 -20 74c5 23 20 43 44 53c13 5 33 8 53 3c16 -3 30 -23 47 -19c21 6 30 22 42 49l23 51l-174 388c-16 37 -13 83 22 103c34 19 89 7 103 -23l129 -287l128 282c17 38 71 47 105 27
c33 -20 38 -66 22 -103zM199 834c47 0 84 -42 83 -88s-41 -82 -87 -82s-84 40 -83 86c1 47 40 84 87 84zM432 834c46 0 84 -42 83 -88s-41 -82 -87 -82c-48 0 -84 40 -83 86c1 47 40 84 87 84z" />
    <glyph glyph-name="Ydieresis" unicode="&#x178;" horiz-adv-x="722" 
d="M472 325v-248c0 -49 -39 -85 -87 -85c-49 0 -88 36 -88 85v251l-222 332c-32 43 -19 97 23 122c39 26 96 13 120 -24l167 -250l167 250c25 38 81 50 120 24c42 -25 53 -79 23 -123zM433 907c-27 -27 -77 -24 -102 4c-25 29 -21 76 4 102l60 57c23 23 73 29 101 4
c29 -26 31 -75 5 -101z" />
    <glyph glyph-name="fraction" unicode="&#x2044;" horiz-adv-x="722" 
d="M472 325v-248c0 -49 -39 -85 -87 -85c-49 0 -88 36 -88 85v251l-222 332c-32 43 -19 97 23 122c39 26 96 13 120 -24l167 -250l167 250c25 38 81 50 120 24c42 -25 53 -79 23 -123zM280 1058c47 0 85 -41 84 -88c-2 -46 -41 -82 -88 -82c-46 0 -84 40 -83 87
c1 46 40 83 87 83zM513 1058c47 0 84 -41 83 -88c-1 -46 -41 -82 -87 -82s-84 40 -83 87c1 46 40 83 87 83z" />
    <glyph glyph-name="periodcentered" unicode="&#xb7;" horiz-adv-x="454" 
d="M204 0h65l-47 -77c48 9 85 7 122 -21c27 -21 34 -50 33 -74c-3 -35 -18 -64 -55 -87c-60 -38 -173 -20 -245 10l23 53c39 -15 104 -35 139 -16c16 10 22 18 23 34c1 17 -6 28 -15 37c-18 16 -52 10 -85 3l-28 22z" />
    <glyph glyph-name="Acircumflex" unicode="&#xc2;" horiz-adv-x="813" 
d="M277 122l-38 -79c-21 -44 -71 -64 -116 -44c-43 20 -64 72 -45 117l288 633c18 39 60 47 85 47c31 0 71 -6 90 -48l279 -632c19 -45 -2 -97 -46 -117s-94 0 -115 44l-38 79h-344zM552 277l-103 234l-103 -234h206zM484 902c29 -21 72 -17 95 13c22 29 17 70 -13 97
c-16 14 -63 61 -103 81c-9 4 -29 5 -38 0c-40 -22 -91 -67 -108 -81c-29 -28 -35 -68 -12 -97c22 -30 65 -34 94 -13c30 21 28 20 43 32c14 -12 12 -11 42 -32z" />
    <glyph glyph-name="Ecircumflex" unicode="&#xca;" horiz-adv-x="607" 
d="M160 0c-48 0 -88 39 -88 87v614s38 87 88 87h351c45 1 83 -32 84 -78c1 -45 -32 -83 -78 -84h-269v-158h209c41 0 76 -33 76 -74s-32 -76 -74 -76h-210v-165h252c46 0 84 -25 84 -72c0 -45 -33 -81 -78 -81h-347zM378 902c30 -21 73 -17 95 13c22 29 18 70 -13 97
c-15 14 -63 61 -103 81c-8 4 -28 5 -38 0c-40 -22 -90 -67 -107 -81c-30 -28 -35 -68 -13 -97c22 -30 65 -34 95 -13l42 32z" />
    <glyph glyph-name="Aacute" unicode="&#xc1;" horiz-adv-x="813" 
d="M277 122l-38 -79c-21 -44 -71 -64 -116 -44c-43 20 -64 72 -45 117l288 633c18 39 60 47 85 47c31 0 71 -6 90 -48l279 -632c19 -45 -2 -97 -46 -117s-94 0 -115 44l-38 79h-344zM552 277l-103 234l-103 -234h206zM518 907c-27 -27 -76 -24 -102 4c-25 29 -21 76 4 102
l61 57c23 23 72 29 101 4c28 -26 30 -75 4 -101z" />
    <glyph glyph-name="Edieresis" unicode="&#xcb;" horiz-adv-x="607" 
d="M160 0c-48 0 -88 39 -88 87v614s38 87 88 87h351c45 1 83 -32 84 -78c1 -45 -32 -83 -78 -84h-269v-158h209c41 0 76 -33 76 -74s-32 -76 -74 -76h-210v-165h252c46 0 84 -25 84 -72c0 -45 -33 -81 -78 -81h-347zM204 1058c47 0 85 -41 84 -88c-1 -46 -40 -82 -88 -82
c-46 0 -84 40 -83 87c1 46 40 83 87 83zM437 1058c47 0 85 -41 84 -88c-2 -46 -42 -82 -88 -82s-84 40 -83 87c1 46 40 83 87 83z" />
    <glyph glyph-name="Egrave" unicode="&#xc8;" horiz-adv-x="607" 
d="M160 0c-48 0 -88 39 -88 87v614s38 87 88 87h351c45 1 83 -32 84 -78c1 -45 -32 -83 -78 -84h-269v-158h209c41 0 76 -33 76 -74s-32 -76 -74 -76h-210v-165h252c46 0 84 -25 84 -72c0 -45 -33 -81 -78 -81h-347zM293 907c27 -27 77 -24 102 4c25 29 21 76 -4 102l-60 57
c-23 23 -73 29 -101 4c-29 -26 -31 -75 -4 -101z" />
    <glyph glyph-name="Iacute" unicode="&#xcd;" horiz-adv-x="261" 
d="M251 79c0 -48 -39 -87 -88 -87c-48 0 -88 39 -88 87v629c0 50 40 88 88 88c49 0 88 -39 88 -88v-629zM205 907c-27 -27 -76 -24 -102 4c-25 29 -21 76 4 102l61 57c23 23 72 29 101 4c28 -26 30 -75 4 -101z" />
    <glyph glyph-name="Icircumflex" unicode="&#xce;" horiz-adv-x="261" 
d="M251 79c0 -48 -39 -87 -88 -87c-48 0 -88 39 -88 87v629c0 50 40 88 88 88c49 0 88 -39 88 -88v-629zM195 902c29 -21 73 -17 95 13c22 29 18 70 -13 97c-16 14 -63 61 -103 81c-9 4 -29 5 -38 0c-40 -22 -91 -67 -108 -81c-29 -28 -34 -68 -12 -97c22 -30 65 -34 95 -13
l42 32c15 -12 12 -11 42 -32z" />
    <glyph glyph-name="Idieresis" unicode="&#xcf;" horiz-adv-x="261" 
d="M251 79c0 -48 -39 -87 -88 -87c-48 0 -88 39 -88 87v629c0 50 40 88 88 88c49 0 88 -39 88 -88v-629zM53 1058c46 0 84 -41 83 -88c-1 -46 -40 -82 -88 -82c-46 0 -84 40 -83 87c1 46 40 83 88 83zM286 1058c46 0 84 -41 83 -88c-1 -46 -41 -82 -88 -82
c-46 0 -84 40 -83 87c1 46 40 83 88 83z" />
    <glyph glyph-name="Igrave" unicode="&#xcc;" horiz-adv-x="261" 
d="M251 79c0 -48 -39 -87 -88 -87c-48 0 -88 39 -88 87v629c0 50 40 88 88 88c49 0 88 -39 88 -88v-629zM129 907c27 -27 76 -24 102 4c25 29 21 76 -4 102l-61 57c-23 23 -72 29 -101 4c-28 -26 -30 -75 -4 -101z" />
    <glyph glyph-name="Oacute" unicode="&#xd3;" horiz-adv-x="888" 
d="M474 796c223 0 405 -180 405 -402s-182 -402 -405 -402c-222 0 -401 182 -402 404c-1 220 182 400 402 400zM252 395c-1 -123 100 -223 222 -223s224 100 224 222s-102 222 -224 222s-222 -100 -222 -221zM547 907c-28 -27 -77 -24 -102 4c-26 29 -21 76 4 102l60 57
c23 23 73 29 101 4c29 -26 31 -75 4 -101z" />
    <glyph glyph-name="Ocircumflex" unicode="&#xd4;" horiz-adv-x="888" 
d="M474 796c223 0 405 -180 405 -402s-182 -402 -405 -402c-222 0 -401 182 -402 404c-1 220 182 400 402 400zM252 395c-1 -123 100 -223 222 -223s224 100 224 222s-102 222 -224 222s-222 -100 -222 -221zM531 902c30 -21 73 -17 95 13c22 29 18 70 -13 97
c-16 14 -63 61 -103 81c-8 4 -28 5 -38 0c-40 -22 -91 -67 -107 -81c-30 -28 -35 -68 -13 -97c22 -30 65 -34 95 -13l42 32z" />
    <glyph glyph-name="Ograve" unicode="&#xd2;" horiz-adv-x="888" 
d="M474 796c223 0 405 -180 405 -402s-182 -402 -405 -402c-222 0 -401 182 -402 404c-1 220 182 400 402 400zM252 395c-1 -123 100 -223 222 -223s224 100 224 222s-102 222 -224 222s-222 -100 -222 -221zM429 907c27 -27 77 -24 102 4c25 29 21 76 -4 102l-60 57
c-23 23 -73 29 -101 4c-29 -26 -31 -75 -5 -101z" />
    <glyph glyph-name="Uacute" unicode="&#xda;" horiz-adv-x="713" 
d="M524 708c0 49 39 88 87 88c49 0 89 -38 89 -88v-407c0 -172 -145 -309 -319 -309c-172 0 -309 93 -309 320l-1 396c0 50 40 88 88 88c49 0 88 -39 88 -88v-394c2 -91 53 -149 130 -149c79 0 147 55 147 132v411zM452 907c-27 -27 -77 -24 -102 4c-25 29 -21 76 4 102
l60 57c23 23 73 29 101 4c29 -26 31 -75 4 -101z" />
    <glyph glyph-name="Ucircumflex" unicode="&#xdb;" horiz-adv-x="713" 
d="M524 708c0 49 39 88 87 88c49 0 89 -38 89 -88v-407c0 -172 -145 -309 -319 -309c-172 0 -309 93 -309 320l-1 396c0 50 40 88 88 88c49 0 88 -39 88 -88v-394c2 -91 53 -149 130 -149c79 0 147 55 147 132v411zM435 902c30 -21 73 -17 95 13c22 29 18 70 -13 97
c-15 14 -63 61 -103 81c-8 4 -28 5 -38 0c-40 -22 -90 -67 -107 -81c-30 -28 -35 -68 -13 -97c22 -30 65 -34 95 -13l42 32z" />
    <glyph glyph-name="Ugrave" unicode="&#xd9;" horiz-adv-x="713" 
d="M524 708c0 49 39 88 87 88c49 0 89 -38 89 -88v-407c0 -172 -145 -309 -319 -309c-172 0 -309 93 -309 320l-1 396c0 50 40 88 88 88c49 0 88 -39 88 -88v-394c2 -91 53 -149 130 -149c79 0 147 55 147 132v411zM340 907c28 -27 77 -24 103 4c25 29 21 76 -5 102l-60 57
c-23 23 -72 29 -101 4c-28 -26 -30 -75 -4 -101z" />
    <glyph glyph-name="dotlessi" unicode="&#x131;" horiz-adv-x="264" 
d="M233 64c0 -33 -35 -72 -78 -72s-79 39 -79 72v431c0 36 36 73 79 73s78 -37 78 -73v-431z" />
    <glyph glyph-name="circumflex" unicode="&#x2c6;" horiz-adv-x="384" 
d="M216 633l42 -31c30 -21 73 -17 95 12c22 30 18 71 -13 97c-15 15 -63 61 -103 81c-8 5 -28 6 -38 0c-40 -22 -90 -66 -107 -81c-30 -27 -35 -67 -13 -97c22 -29 65 -33 95 -12z" />
    <glyph glyph-name="tilde" unicode="&#x2dc;" horiz-adv-x="451" 
d="M162 793c26 5 46 3 75 -8c42 -15 55 -20 75 -18c29 3 54 34 85 30c18 -2 34 -13 41 -40c7 -25 -3 -56 -21 -79c-29 -39 -70 -52 -110 -52c-64 0 -90 46 -133 24c-40 -21 -52 -25 -74 -18c-18 7 -32 26 -33 47c-2 35 12 66 46 94c16 12 31 17 49 20z" />
    <glyph glyph-name="ring" unicode="&#x2da;" horiz-adv-x="287" 
d="M169 796c58 0 106 -47 106 -105s-45 -106 -103 -106s-108 46 -108 104s47 107 105 107zM132 689c0 -20 18 -37 39 -37c20 0 37 18 37 39c0 20 -18 37 -39 37c-20 0 -37 -18 -37 -39z" />
    </font>
</defs>
</svg>
